<svg xmlns="http://www.w3.org/2000/svg" viewBox="0 0 1600 500" preserveAspectRatio="xMidYMid slice" role="img" aria-label="Scena - droga, gory, slonce">
  <defs>
    <linearGradient id="sky" x1="0" y1="0" x2="0" y2="1">
      <stop offset="0" stop-color="#7fd0ff"/>
      <stop offset="1" stop-color="#cdebff"/>
    </linearGradient>
    <linearGradient id="mtn" x1="0" y1="0" x2="0" y2="1">
      <stop offset="0" stop-color="#6edc7a"/>
      <stop offset="1" stop-color="#3bbf5c"/>
    </linearGradient>
  </defs>
  <rect width="1600" height="500" fill="url(#sky)"/>

  <g transform="translate(1320,170)">
    <circle r="40" fill="#ffd23f" stroke="#0d1b3d" stroke-width="3"/>
    <g stroke="#ffd23f" stroke-width="6" stroke-linecap="round" opacity="0.9">
      <line x1="-58" y1="0" x2="-72" y2="0"/>
      <line x1="58" y1="0" x2="72" y2="0"/>
      <line x1="0" y1="-58" x2="0" y2="-72"/>
      <line x1="0" y1="58" x2="0" y2="72"/>
      <line x1="-41" y1="-41" x2="-51" y2="-51"/>
      <line x1="41" y1="-41" x2="51" y2="-51"/>
      <line x1="-41" y1="41" x2="-51" y2="51"/>
      <line x1="41" y1="41" x2="51" y2="51"/>
      <animateTransform attributeName="transform" type="rotate" from="0" to="360" dur="60s" repeatCount="indefinite"/>
    </g>
  </g>

  <g fill="#ffffff" stroke="#0d1b3d" stroke-width="3" opacity="0.95">
    <g>
      <ellipse cx="0" cy="0" rx="55" ry="22"/>
      <ellipse cx="-30" cy="-8" rx="30" ry="18"/>
      <ellipse cx="25" cy="-10" rx="26" ry="16"/>
      <animateTransform attributeName="transform" type="translate" from="200 90" to="1800 90" dur="110s" repeatCount="indefinite"/>
    </g>
    <g>
      <ellipse cx="0" cy="0" rx="45" ry="18"/>
      <ellipse cx="-22" cy="-7" rx="22" ry="14"/>
      <ellipse cx="20" cy="-8" rx="20" ry="13"/>
      <animateTransform attributeName="transform" type="translate" from="600 140" to="2000 140" dur="130s" repeatCount="indefinite"/>
    </g>
    <g>
      <ellipse cx="0" cy="0" rx="60" ry="24"/>
      <ellipse cx="-34" cy="-9" rx="32" ry="20"/>
      <ellipse cx="28" cy="-11" rx="28" ry="18"/>
      <animateTransform attributeName="transform" type="translate" from="-100 70" to="1700 70" dur="150s" repeatCount="indefinite"/>
    </g>
  </g>

  <g>
    <polygon points="-50,360 220,180 480,360" fill="url(#mtn)" stroke="#0d1b3d" stroke-width="3"/>
    <polygon points="180,360 420,200 670,360" fill="#6edc7a" stroke="#0d1b3d" stroke-width="3"/>
    <polygon points="560,360 800,220 1040,360" fill="url(#mtn)" stroke="#0d1b3d" stroke-width="3"/>
    <polygon points="980,360 1200,240 1420,360" fill="#6edc7a" stroke="#0d1b3d" stroke-width="3"/>
    <polygon points="1350,360 1520,250 1700,360" fill="url(#mtn)" stroke="#0d1b3d" stroke-width="3"/>
    <polygon points="180,225 220,180 260,225 240,235 220,220 200,235" fill="#ffffff" stroke="#0d1b3d" stroke-width="2"/>
    <polygon points="770,255 800,220 830,255 815,265 800,255 785,265" fill="#ffffff" stroke="#0d1b3d" stroke-width="2"/>
    <polygon points="1170,275 1200,240 1230,275 1215,285 1200,275 1185,285" fill="#ffffff" stroke="#0d1b3d" stroke-width="2"/>
  </g>

  <g>
    <symbol id="tree" viewBox="-14 -42 28 42">
      <rect x="-2.5" y="-12" width="5" height="14" rx="1.2" fill="#a86c3a" stroke="#7a4f2b" stroke-width="1.5"/>
      <polygon points="0,-42 -12,-12 12,-12" fill="#3ddc97" stroke="#0d1b3d" stroke-width="2.5"/>
      <polygon points="0,-30 -14,0 14,0" fill="#2bb87f" stroke="#0d1b3d" stroke-width="2.5"/>
    </symbol>
    <g>
      <use href="#tree" x="-30" y="380" width="28" height="42"/>
      <use href="#tree" x="120" y="375" width="34" height="50"/>
      <use href="#tree" x="320" y="385" width="26" height="40"/>
      <use href="#tree" x="500" y="378" width="30" height="46"/>
      <use href="#tree" x="700" y="386" width="24" height="38"/>
      <use href="#tree" x="900" y="376" width="32" height="48"/>
      <use href="#tree" x="1100" y="384" width="26" height="42"/>
      <use href="#tree" x="1300" y="380" width="30" height="46"/>
      <use href="#tree" x="1500" y="386" width="24" height="38"/>
      <use href="#tree" x="1680" y="382" width="28" height="44"/>
      <animateTransform attributeName="transform" type="translate" from="0 0" to="-200 0" dur="10s" repeatCount="indefinite"/>
    </g>
  </g>

  <rect x="0" y="420" width="1600" height="50" fill="#3ddc97" stroke="#0d1b3d" stroke-width="3"/>

  <rect x="0" y="430" width="1600" height="70" fill="#3a3a4a"/>
  <rect x="0" y="430" width="1600" height="3" fill="#0d1b3d"/>
  <rect x="0" y="498" width="1600" height="3" fill="#0d1b3d"/>
  <g fill="#ffd23f">
    <g>
      <rect x="0" y="463" width="60" height="6"/>
      <rect x="120" y="463" width="60" height="6"/>
      <rect x="240" y="463" width="60" height="6"/>
      <rect x="360" y="463" width="60" height="6"/>
      <rect x="480" y="463" width="60" height="6"/>
      <rect x="600" y="463" width="60" height="6"/>
      <rect x="720" y="463" width="60" height="6"/>
      <rect x="840" y="463" width="60" height="6"/>
      <rect x="960" y="463" width="60" height="6"/>
      <rect x="1080" y="463" width="60" height="6"/>
      <rect x="1200" y="463" width="60" height="6"/>
      <rect x="1320" y="463" width="60" height="6"/>
      <rect x="1440" y="463" width="60" height="6"/>
      <rect x="1560" y="463" width="60" height="6"/>
      <animateTransform attributeName="transform" type="translate" from="0 0" to="-120 0" dur="1s" repeatCount="indefinite"/>
    </g>
  </g>
</svg>
