<svg xmlns="http://www.w3.org/2000/svg" viewBox="0 0 1600 500" preserveAspectRatio="xMidYMid slice">
  <defs>
    <linearGradient id="sky" x1="0" y1="0" x2="0" y2="1">
      <stop offset="0" stop-color="#6cc9ff"/>
      <stop offset="1" stop-color="#bfe7ff"/>
    </linearGradient>
    <linearGradient id="ground" x1="0" y1="0" x2="0" y2="1">
      <stop offset="0" stop-color="#8ad36b"/>
      <stop offset="1" stop-color="#4f9f3c"/>
    </linearGradient>
    <linearGradient id="road" x1="0" y1="0" x2="0" y2="1">
      <stop offset="0" stop-color="#4a5568"/>
      <stop offset="1" stop-color="#2d3748"/>
    </linearGradient>
    <radialGradient id="sunGlow" cx="0.5" cy="0.5" r="0.5">
      <stop offset="0" stop-color="#fff6c2" stop-opacity="0.9"/>
      <stop offset="1" stop-color="#fff6c2" stop-opacity="0"/>
    </radialGradient>

    <g id="tree">
      <rect x="-3" y="-6" width="6" height="14" fill="#5a3a22"/>
      <polygon points="-14,-6 14,-6 0,-34" fill="#2f7a3d" stroke="#0d1b3d" stroke-width="2" stroke-linejoin="round"/>
      <polygon points="-11,-16 11,-16 0,-38" fill="#3a8f4a"/>
    </g>

    <g id="cloud" fill="#fff">
      <ellipse cx="0" cy="0" rx="28" ry="10"/>
      <ellipse cx="-16" cy="-3" rx="16" ry="8"/>
      <ellipse cx="16" cy="-3" rx="18" ry="9"/>
    </g>
  </defs>

  <!-- NIEBO -->
  <rect width="1600" height="500" fill="url(#sky)"/>

  <!-- SLONECZKO - mniejsze i nizej -->
  <g transform="translate(1320,170)">
    <circle r="55" fill="url(#sunGlow)"/>
    <g stroke="#ffd23f" stroke-width="4" stroke-linecap="round">
      <line x1="0" y1="-40" x2="0" y2="-52"/>
      <line x1="0" y1="40" x2="0" y2="52"/>
      <line x1="-40" y1="0" x2="-52" y2="0"/>
      <line x1="40" y1="0" x2="52" y2="0"/>
      <line x1="-29" y1="-29" x2="-38" y2="-38"/>
      <line x1="29" y1="-29" x2="38" y2="-38"/>
      <line x1="-29" y1="29" x2="-38" y2="38"/>
      <line x1="29" y1="29" x2="38" y2="38"/>
      <animateTransform attributeName="transform" type="rotate" from="0" to="360" dur="50s" repeatCount="indefinite"/>
    </g>
    <circle r="28" fill="#ffd23f" stroke="#f59e0b" stroke-width="3"/>
    <circle cx="-8" cy="-4" r="2.2" fill="#0d1b3d"/>
    <circle cx="8" cy="-4" r="2.2" fill="#0d1b3d"/>
    <path d="M-8,5 Q0,12 8,5" stroke="#0d1b3d" stroke-width="2.2" stroke-linecap="round" fill="none"/>
  </g>

  <!-- CHMURKI -->
  <use href="#cloud" x="200" y="90">
    <animate attributeName="x" from="1700" to="-100" dur="90s" repeatCount="indefinite"/>
  </use>
  <use href="#cloud" x="600" y="60" transform="scale(1.1)">
    <animate attributeName="x" from="1500" to="-100" dur="100s" repeatCount="indefinite"/>
  </use>
  <use href="#cloud" x="1000" y="120" transform="scale(.85)">
    <animate attributeName="x" from="1900" to="-100" dur="120s" repeatCount="indefinite"/>
  </use>

  <!-- GORY -->
  <g opacity=".65">
    <polygon points="0,330 160,235 320,330" fill="#7c9cc9"/>
    <polygon points="240,330 400,215 560,330" fill="#5b7aab"/>
    <polygon points="480,330 640,245 800,330" fill="#7c9cc9"/>
    <polygon points="720,330 900,205 1080,330" fill="#5b7aab"/>
    <polygon points="1000,330 1160,235 1320,330" fill="#7c9cc9"/>
    <polygon points="1260,330 1420,220 1580,330" fill="#5b7aab"/>
  </g>

  <!-- ZIEMIA -->
  <rect x="0" y="330" width="1600" height="170" fill="url(#ground)"/>

  <!-- DRZEWA - paralaksa wolna -->
  <g>
    <use href="#tree" x="100" y="378"/>
    <use href="#tree" x="240" y="382"/>
    <use href="#tree" x="380" y="378"/>
    <use href="#tree" x="520" y="380"/>
    <use href="#tree" x="660" y="378"/>
    <use href="#tree" x="800" y="382"/>
    <use href="#tree" x="940" y="378"/>
    <use href="#tree" x="1080" y="380"/>
    <use href="#tree" x="1220" y="378"/>
    <use href="#tree" x="1360" y="382"/>
    <use href="#tree" x="1500" y="378"/>
    <animateTransform attributeName="transform" type="translate" from="0 0" to="-140 0" dur="9s" repeatCount="indefinite"/>
  </g>

  <!-- DROGA -->
  <rect x="0" y="395" width="1600" height="60" fill="url(#road)" stroke="#0d1b3d" stroke-width="3"/>

  <!-- pas drogowy animowany -->
  <line x1="-100" y1="425" x2="1700" y2="425" stroke="#ffd23f" stroke-width="6" stroke-dasharray="40 30" stroke-linecap="round">
    <animate attributeName="stroke-dashoffset" from="0" to="-70" dur="0.9s" repeatCount="indefinite"/>
  </line>

  <!-- MOTOCYKLISTA: ruch z lewa w prawo + lekkie podskakiwanie -->
  <g>
    <g transform="translate(0,398)">
      <!-- cien -->
      <ellipse cx="0" cy="20" rx="48" ry="4" fill="#0d1b3d" opacity=".3"/>

      <!-- tylne kolo (mniejsze) -->
      <g transform="translate(-30,10)">
        <circle r="14" fill="#1a202c" stroke="#0d1b3d" stroke-width="2.5"/>
        <circle r="5" fill="#cbd5e1"/>
        <g stroke="#cbd5e1" stroke-width="1.8">
          <line x1="0" y1="-11" x2="0" y2="11"/>
          <line x1="-11" y1="0" x2="11" y2="0"/>
          <line x1="-8" y1="-8" x2="8" y2="8"/>
          <line x1="-8" y1="8" x2="8" y2="-8"/>
          <animateTransform attributeName="transform" type="rotate" from="0" to="360" dur="0.7s" repeatCount="indefinite" additive="sum"/>
        </g>
      </g>

      <!-- przednie kolo -->
      <g transform="translate(30,10)">
        <circle r="14" fill="#1a202c" stroke="#0d1b3d" stroke-width="2.5"/>
        <circle r="5" fill="#cbd5e1"/>
        <g stroke="#cbd5e1" stroke-width="1.8">
          <line x1="0" y1="-11" x2="0" y2="11"/>
          <line x1="-11" y1="0" x2="11" y2="0"/>
          <line x1="-8" y1="-8" x2="8" y2="8"/>
          <line x1="-8" y1="8" x2="8" y2="-8"/>
          <animateTransform attributeName="transform" type="rotate" from="0" to="360" dur="0.7s" repeatCount="indefinite" additive="sum"/>
        </g>
      </g>

      <!-- rama (czerwony pitbike) -->
      <path d="M-30,4 L-14,-6 L0,-12 L18,-12 L30,-2 L30,6 L18,0 L2,0 L-14,4 Z" fill="#ff5d5d" stroke="#0d1b3d" stroke-width="2.5" stroke-linejoin="round"/>
      <!-- bak -->
      <path d="M-2,-12 L14,-15 L18,-9 L2,-6 Z" fill="#ffd23f" stroke="#0d1b3d" stroke-width="2" stroke-linejoin="round"/>
      <!-- siodelko -->
      <path d="M-4,-8 L14,-11 L17,-8 L0,-5 Z" fill="#0d1b3d"/>
      <!-- przedni blotnik -->
      <path d="M22,-3 Q34,-9 42,-1" stroke="#0d1b3d" stroke-width="2.5" fill="none" stroke-linecap="round"/>
      <!-- tylny blotnik -->
      <path d="M-44,2 Q-36,-6 -30,-6" stroke="#0d1b3d" stroke-width="2.5" fill="none" stroke-linecap="round"/>
      <!-- kierownica -->
      <line x1="30" y1="-3" x2="38" y2="-18" stroke="#0d1b3d" stroke-width="2.5" stroke-linecap="round"/>
      <line x1="34" y1="-20" x2="44" y2="-17" stroke="#0d1b3d" stroke-width="4" stroke-linecap="round"/>

      <!-- noga -->
      <path d="M-4,-6 L-10,8 L-5,10 L3,-4 Z" fill="#1e3a8a" stroke="#0d1b3d" stroke-width="2"/>
      <!-- tulow (kurtka niebieska) -->
      <path d="M-6,-26 L-10,-8 L18,-8 L14,-26 Z" fill="#4ec3ff" stroke="#0d1b3d" stroke-width="2.5" stroke-linejoin="round"/>
      <!-- ramie do kierownicy -->
      <path d="M8,-24 Q22,-22 38,-18" stroke="#4ec3ff" stroke-width="7" stroke-linecap="round" fill="none"/>
      <path d="M8,-24 Q22,-22 38,-18" stroke="#0d1b3d" stroke-width="2" stroke-linecap="round" fill="none"/>
      <!-- glowa - szyja -->
      <rect x="2" y="-31" width="8" height="6" fill="#f5c896"/>
      <!-- kask -->
      <ellipse cx="6" cy="-36" rx="12" ry="11" fill="#ffd23f" stroke="#0d1b3d" stroke-width="2.5"/>
      <!-- wizjer -->
      <path d="M-4,-38 Q6,-32 16,-38 L16,-33 Q6,-27 -4,-33 Z" fill="#0d1b3d"/>
      <!-- akcent czerwony na kasku -->
      <path d="M-5,-41 L16,-41" stroke="#ff5d5d" stroke-width="2.5" stroke-linecap="round"/>

      <!-- linie ruchu -->
      <g stroke="#fff" stroke-width="2.5" stroke-linecap="round" opacity=".85">
        <line x1="-50" y1="-12" x2="-72" y2="-10">
          <animate attributeName="opacity" values="0;.9;0" dur="0.5s" repeatCount="indefinite"/>
        </line>
        <line x1="-52" y1="-2" x2="-78" y2="0">
          <animate attributeName="opacity" values=".9;0;.9" dur="0.5s" repeatCount="indefinite"/>
        </line>
        <line x1="-50" y1="8" x2="-70" y2="10">
          <animate attributeName="opacity" values="0;.9;0" dur="0.55s" repeatCount="indefinite"/>
        </line>
      </g>

      <animateTransform attributeName="transform" type="translate" values="0 0; 0 -2; 0 0; 0 -1; 0 0" dur="0.7s" repeatCount="indefinite" additive="sum"/>
    </g>
    <!-- ruch z lewa w prawo -->
    <animateTransform attributeName="transform" type="translate" from="-150 0" to="1750 0" dur="14s" repeatCount="indefinite"/>
  </g>
</svg>
