<svg xmlns="http://www.w3.org/2000/svg" viewBox="0 0 1600 500" preserveAspectRatio="xMidYMid slice" role="img" aria-label="Motocyklista jadacy na motorze">
  <defs>
    <linearGradient id="sky" x1="0" y1="0" x2="0" y2="1">
      <stop offset="0" stop-color="#7fd0ff"/>
      <stop offset="1" stop-color="#cdebff"/>
    </linearGradient>
    <linearGradient id="mtn" x1="0" y1="0" x2="0" y2="1">
      <stop offset="0" stop-color="#7a93c9"/>
      <stop offset="1" stop-color="#4f6aa6"/>
    </linearGradient>
    <linearGradient id="bikeBody" x1="0" y1="0" x2="0" y2="1">
      <stop offset="0" stop-color="#ff8a5b"/>
      <stop offset="1" stop-color="#e64545"/>
    </linearGradient>
    <linearGradient id="bikeBodyDark" x1="0" y1="0" x2="0" y2="1">
      <stop offset="0" stop-color="#e64545"/>
      <stop offset="1" stop-color="#b32a2a"/>
    </linearGradient>
    <radialGradient id="hub" cx=".5" cy=".5" r=".5">
      <stop offset="0" stop-color="#c79bff"/>
      <stop offset="1" stop-color="#7a4fb8"/>
    </radialGradient>
    <linearGradient id="suit" x1="0" y1="0" x2="0" y2="1">
      <stop offset="0" stop-color="#3aa3ff"/>
      <stop offset="1" stop-color="#1f6fcf"/>
    </linearGradient>
  </defs>

  <!-- Niebo -->
  <rect width="1600" height="500" fill="url(#sky)"/>

  <!-- Slonce (mniejsze, ladne) -->
  <g transform="translate(1320,170)">
    <circle r="40" fill="#ffd23f" stroke="#0d1b3d" stroke-width="3"/>
    <g stroke="#ffd23f" stroke-width="6" stroke-linecap="round" opacity="0.9">
      <line x1="-58" y1="0" x2="-72" y2="0"/>
      <line x1="58" y1="0" x2="72" y2="0"/>
      <line x1="0" y1="-58" x2="0" y2="-72"/>
      <line x1="0" y1="58" x2="0" y2="72"/>
      <line x1="-41" y1="-41" x2="-51" y2="-51"/>
      <line x1="41" y1="-41" x2="51" y2="-51"/>
      <line x1="-41" y1="41" x2="-51" y2="51"/>
      <line x1="41" y1="41" x2="51" y2="51"/>
      <animateTransform attributeName="transform" type="rotate" from="0" to="360" dur="60s" repeatCount="indefinite"/>
    </g>
  </g>

  <!-- Chmury -->
  <g fill="#ffffff" stroke="#0d1b3d" stroke-width="3" opacity="0.95">
    <g>
      <ellipse cx="0" cy="0" rx="55" ry="22"/>
      <ellipse cx="-30" cy="-8" rx="30" ry="18"/>
      <ellipse cx="25" cy="-10" rx="26" ry="16"/>
      <animateTransform attributeName="transform" type="translate" from="200 90" to="1800 90" dur="110s" repeatCount="indefinite"/>
    </g>
    <g>
      <ellipse cx="0" cy="0" rx="45" ry="18"/>
      <ellipse cx="-22" cy="-7" rx="22" ry="14"/>
      <ellipse cx="20" cy="-8" rx="20" ry="13"/>
      <animateTransform attributeName="transform" type="translate" from="600 140" to="2000 140" dur="130s" repeatCount="indefinite"/>
    </g>
    <g>
      <ellipse cx="0" cy="0" rx="60" ry="24"/>
      <ellipse cx="-34" cy="-9" rx="32" ry="20"/>
      <ellipse cx="28" cy="-11" rx="28" ry="18"/>
      <animateTransform attributeName="transform" type="translate" from="-100 70" to="1700 70" dur="150s" repeatCount="indefinite"/>
    </g>
  </g>

  <!-- Gory -->
  <g>
    <polygon points="-50,360 220,180 480,360" fill="url(#mtn)" stroke="#0d1b3d" stroke-width="3"/>
    <polygon points="180,360 420,200 670,360" fill="#8aa0d3" stroke="#0d1b3d" stroke-width="3"/>
    <polygon points="560,360 800,220 1040,360" fill="url(#mtn)" stroke="#0d1b3d" stroke-width="3"/>
    <polygon points="980,360 1200,240 1420,360" fill="#8aa0d3" stroke="#0d1b3d" stroke-width="3"/>
    <polygon points="1350,360 1520,250 1700,360" fill="url(#mtn)" stroke="#0d1b3d" stroke-width="3"/>
    <!-- Snieg na czubkach -->
    <polygon points="180,225 220,180 260,225 240,235 220,220 200,235" fill="#ffffff" stroke="#0d1b3d" stroke-width="2"/>
    <polygon points="770,255 800,220 830,255 815,265 800,255 785,265" fill="#ffffff" stroke="#0d1b3d" stroke-width="2"/>
    <polygon points="1170,275 1200,240 1230,275 1215,285 1200,275 1185,285" fill="#ffffff" stroke="#0d1b3d" stroke-width="2"/>
  </g>

  <!-- Drzewka (mniejsze) -->
  <g>
    <symbol id="tree" viewBox="-14 -42 28 42">
      <polygon points="0,-42 -12,-12 12,-12" fill="#3ddc97" stroke="#0d1b3d" stroke-width="2.5"/>
      <polygon points="0,-30 -14,0 14,0" fill="#2bb87f" stroke="#0d1b3d" stroke-width="2.5"/>
    </symbol>
    <g>
      <use href="#tree" x="-30" y="380" width="28" height="42"/>
      <use href="#tree" x="120" y="375" width="34" height="50"/>
      <use href="#tree" x="320" y="385" width="26" height="40"/>
      <use href="#tree" x="500" y="378" width="30" height="46"/>
      <use href="#tree" x="700" y="386" width="24" height="38"/>
      <use href="#tree" x="900" y="376" width="32" height="48"/>
      <use href="#tree" x="1100" y="384" width="26" height="42"/>
      <use href="#tree" x="1300" y="380" width="30" height="46"/>
      <use href="#tree" x="1500" y="386" width="24" height="38"/>
      <use href="#tree" x="1680" y="382" width="28" height="44"/>
      <animateTransform attributeName="transform" type="translate" from="0 0" to="-200 0" dur="10s" repeatCount="indefinite"/>
    </g>
  </g>

  <!-- Trawa -->
  <rect x="0" y="420" width="1600" height="50" fill="#3ddc97" stroke="#0d1b3d" stroke-width="3"/>

  <!-- Droga -->
  <rect x="0" y="430" width="1600" height="70" fill="#3a3a4a"/>
  <rect x="0" y="430" width="1600" height="3" fill="#0d1b3d"/>
  <rect x="0" y="498" width="1600" height="3" fill="#0d1b3d"/>
  <!-- Pasy drogi animowane -->
  <g fill="#ffd23f">
    <g>
      <rect x="0" y="463" width="60" height="6"/>
      <rect x="120" y="463" width="60" height="6"/>
      <rect x="240" y="463" width="60" height="6"/>
      <rect x="360" y="463" width="60" height="6"/>
      <rect x="480" y="463" width="60" height="6"/>
      <rect x="600" y="463" width="60" height="6"/>
      <rect x="720" y="463" width="60" height="6"/>
      <rect x="840" y="463" width="60" height="6"/>
      <rect x="960" y="463" width="60" height="6"/>
      <rect x="1080" y="463" width="60" height="6"/>
      <rect x="1200" y="463" width="60" height="6"/>
      <rect x="1320" y="463" width="60" height="6"/>
      <rect x="1440" y="463" width="60" height="6"/>
      <rect x="1560" y="463" width="60" height="6"/>
      <animateTransform attributeName="transform" type="translate" from="0 0" to="-120 0" dur="1s" repeatCount="indefinite"/>
    </g>
  </g>

  <!-- ===== MOTOCYKLISTA NA MOTORZE - styl z grafiki ===== -->
  <!-- Caly motocyklista + motor jedzie od lewej do prawej -->
  <g>
    <animateTransform attributeName="transform" type="translate" from="-220 0" to="1820 0" dur="14s" repeatCount="indefinite"/>
    <!-- Lekkie podskakiwanie -->
    <g>
      <animateTransform attributeName="transform" type="translate" values="0 0; 0 -2; 0 0; 0 -1; 0 0" dur="0.5s" repeatCount="indefinite" additive="sum"/>

      <!-- Wszystko narysowane wzgledem (0, 430 = poziom drogi). Pozycja kol odpowiednio. -->
      <!-- Kola: lewe (tylne) na x=0, prawe (przednie) na x=110 -->

      <!-- KOLA - duze, ciemne z fioletowym piascie (jak na obrazku) -->
      <!-- Tylne kolo -->
      <g transform="translate(0, 410)">
        <circle r="38" fill="#1a1a2e" stroke="#0d1b3d" stroke-width="3"/>
        <circle r="30" fill="#2a2a3e" stroke="#0d1b3d" stroke-width="2"/>
        <circle r="18" fill="url(#hub)" stroke="#0d1b3d" stroke-width="2"/>
        <circle r="6" fill="#3a2a5a" stroke="#0d1b3d" stroke-width="1.5"/>
        <g stroke="#0d1b3d" stroke-width="1.5" opacity="0.6">
          <line x1="-18" y1="0" x2="18" y2="0"/>
          <line x1="0" y1="-18" x2="0" y2="18"/>
        </g>
        <animateTransform attributeName="transform" type="rotate" from="0" to="360" dur="0.4s" repeatCount="indefinite" additive="sum"/>
      </g>
      <!-- Przednie kolo -->
      <g transform="translate(110, 410)">
        <circle r="38" fill="#1a1a2e" stroke="#0d1b3d" stroke-width="3"/>
        <circle r="30" fill="#2a2a3e" stroke="#0d1b3d" stroke-width="2"/>
        <circle r="18" fill="url(#hub)" stroke="#0d1b3d" stroke-width="2"/>
        <circle r="6" fill="#3a2a5a" stroke="#0d1b3d" stroke-width="1.5"/>
        <g stroke="#0d1b3d" stroke-width="1.5" opacity="0.6">
          <line x1="-18" y1="0" x2="18" y2="0"/>
          <line x1="0" y1="-18" x2="0" y2="18"/>
        </g>
        <animateTransform attributeName="transform" type="rotate" from="0" to="360" dur="0.4s" repeatCount="indefinite" additive="sum"/>
      </g>

      <!-- Blotnik tylny (ciemny) -->
      <path d="M -34,400 Q -22,378 -2,376 L 8,388 Q -10,388 -28,406 Z" fill="#2a2a3e" stroke="#0d1b3d" stroke-width="2.5"/>
      <!-- Blotnik przedni (ciemny) -->
      <path d="M 78,402 Q 96,378 124,376 Q 140,378 148,400 L 142,406 Q 130,388 110,388 Q 92,392 84,406 Z" fill="#2a2a3e" stroke="#0d1b3d" stroke-width="2.5"/>

      <!-- KORPUS MOTOCYKLA - styl jak na obrazku: niski, krepy, czerwono-pomaranczowy -->
      <!-- Dolna czesc / silnik -->
      <path d="M -8,400 L -8,378 Q -8,372 -2,372 L 100,372 Q 116,372 116,388 L 116,402 L 110,402 Q 100,392 80,392 L 18,392 Q 8,392 4,400 Z"
            fill="url(#bikeBodyDark)" stroke="#0d1b3d" stroke-width="3"/>

      <!-- Glowna karoseria / bak (zaokraglony, charakterystyczny) -->
      <path d="M -2,372 Q -2,348 18,344 L 60,338 Q 88,336 100,348 L 108,360 Q 108,372 100,372 L 6,372 Q -2,372 -2,372 Z"
            fill="url(#bikeBody)" stroke="#0d1b3d" stroke-width="3"/>

      <!-- Akcent niebieski na boku (jak niebieska linia na grafice) -->
      <path d="M 6,358 Q 30,350 60,350 Q 84,352 96,360" stroke="#3aa3ff" stroke-width="4" fill="none" stroke-linecap="round"/>

      <!-- Siodelko (cienisze, ciemne) -->
      <path d="M -8,360 Q -14,354 -22,358 Q -22,364 -14,366 L -2,366 Q 2,360 -2,358 Z" fill="#1a1a2e" stroke="#0d1b3d" stroke-width="2.5"/>

      <!-- Przedni reflektor -->
      <path d="M 104,346 Q 122,344 130,358 L 124,366 Q 116,360 108,360 Z" fill="#ffd23f" stroke="#0d1b3d" stroke-width="2.5"/>
      <circle cx="120" cy="356" r="3" fill="#fff8c8"/>

      <!-- Kierownica -->
      <path d="M 98,344 Q 112,330 118,322" stroke="#0d1b3d" stroke-width="5" fill="none" stroke-linecap="round"/>
      <circle cx="118" cy="322" r="4" fill="#1a1a2e" stroke="#0d1b3d" stroke-width="2"/>

      <!-- Wydech -->
      <path d="M -10,396 L -38,398 Q -44,398 -44,402 Q -44,406 -38,406 L -10,404 Z" fill="#c0c0c8" stroke="#0d1b3d" stroke-width="2"/>

      <!-- ===== MOTOCYKLISTA - siedzacy na motorze ===== -->
      <!-- Nogi (zgiete, oparte o motor) -->
      <!-- Tylna noga -->
      <path d="M 22,360 L 18,394 Q 18,400 22,402 L 30,402 Q 34,400 34,394 L 38,376 Z" fill="url(#suit)" stroke="#0d1b3d" stroke-width="2.5"/>
      <!-- But tylny -->
      <path d="M 16,400 L 16,408 Q 16,412 22,412 L 36,412 Q 38,412 38,408 L 38,400 Z" fill="#1a1a2e" stroke="#0d1b3d" stroke-width="2"/>
      <!-- Przednia noga -->
      <path d="M 56,358 L 60,394 Q 60,400 64,402 L 72,402 Q 76,400 76,394 L 72,360 Z" fill="url(#suit)" stroke="#0d1b3d" stroke-width="2.5"/>
      <!-- But przedni -->
      <path d="M 58,400 L 58,408 Q 58,412 64,412 L 78,412 Q 80,412 80,408 L 80,400 Z" fill="#1a1a2e" stroke="#0d1b3d" stroke-width="2"/>

      <!-- Tulow / kurtka -->
      <path d="M 22,360 Q 18,326 36,316 L 60,314 Q 78,318 76,338 L 72,360 Z" fill="url(#suit)" stroke="#0d1b3d" stroke-width="3"/>
      <!-- Akcent na kurtce -->
      <path d="M 36,322 L 60,320" stroke="#ffd23f" stroke-width="2.5" stroke-linecap="round"/>
      <path d="M 30,338 L 68,338" stroke="#ffffff" stroke-width="1.5" stroke-linecap="round" opacity="0.6"/>

      <!-- Ramie do kierownicy -->
      <path d="M 70,322 Q 88,318 100,330 L 96,338 Q 84,328 70,332 Z" fill="url(#suit)" stroke="#0d1b3d" stroke-width="2.5"/>
      <!-- Rekawiczka -->
      <circle cx="100" cy="332" r="6" fill="#1a1a2e" stroke="#0d1b3d" stroke-width="2"/>

      <!-- Drugie ramie (z tylu) -->
      <path d="M 30,322 Q 18,322 14,332 L 18,340 Q 26,332 32,332 Z" fill="#1f6fcf" stroke="#0d1b3d" stroke-width="2.5" opacity="0.85"/>

      <!-- Szyja -->
      <rect x="44" y="304" width="10" height="14" rx="2" fill="#f5c896" stroke="#0d1b3d" stroke-width="2"/>

      <!-- Kask -->
      <path d="M 32,288 Q 32,272 50,270 Q 70,272 70,290 L 70,304 Q 70,308 66,308 L 38,308 Q 32,308 32,302 Z"
            fill="#ff5d5d" stroke="#0d1b3d" stroke-width="3"/>
      <!-- Wizjer -->
      <path d="M 38,288 Q 38,282 46,280 L 64,280 Q 68,280 68,286 L 68,296 Q 68,300 64,300 L 40,300 Q 38,300 38,294 Z"
            fill="#1a1a2e" stroke="#0d1b3d" stroke-width="2"/>
      <!-- Refleks na wizjerze -->
      <path d="M 42,284 L 52,284" stroke="#7fd0ff" stroke-width="2" stroke-linecap="round"/>
      <!-- Pasek kasku / akcent -->
      <path d="M 34,296 L 70,296" stroke="#0d1b3d" stroke-width="1.5" opacity="0.6"/>
      <!-- Antenka / detal -->
      <line x1="36" y1="276" x2="32" y2="266" stroke="#0d1b3d" stroke-width="2" stroke-linecap="round"/>
      <circle cx="32" cy="265" r="2" fill="#3aa3ff" stroke="#0d1b3d" stroke-width="1"/>
    </g>
  </g>

  <!-- Maly piesek/efekt kurzu za motorem -->
</svg>
